<mxfile host="www.draw.io" modified="2020-03-19T17:32:49.771Z" agent="Mozilla/5.0 (Macintosh; Intel Mac OS X 10_15_1) AppleWebKit/537.36 (KHTML, like Gecko) Chrome/80.0.3987.132 Safari/537.36" etag="wdzwlr8W38xhaSxKAMT0" version="12.8.8" type="github" pages="9">
  <diagram id="cFMJLOZsdsgE2AM0zsal" name="01 - in">
    <mxGraphModel dx="715" dy="400" grid="1" gridSize="10" guides="1" tooltips="1" connect="1" arrows="1" fold="1" page="1" pageScale="1" pageWidth="1920" pageHeight="1200" math="0" shadow="0">
      <root>
        <mxCell id="0" />
        <mxCell id="1" parent="0" />
        <mxCell id="0aZMLazw6CgwqQxlnRln-1" value="Soo....what is a microservice?" style="rounded=0;whiteSpace=wrap;html=1;fillColor=#dae8fc;strokeColor=#6c8ebf;shadow=1;fontSize=37;fontStyle=1" vertex="1" parent="1">
          <mxGeometry x="450" y="260" width="480" height="150" as="geometry" />
        </mxCell>
      </root>
    </mxGraphModel>
  </diagram>
  <diagram id="e1N2xX09iI_bMZLtPAqM" name="02 - mono">
    <mxGraphModel dx="1036" dy="580" grid="1" gridSize="10" guides="1" tooltips="1" connect="1" arrows="1" fold="1" page="1" pageScale="1" pageWidth="1920" pageHeight="1200" math="0" shadow="0">
      <root>
        <mxCell id="qdju0d5hHkHI_rLqjAG6-0" />
        <mxCell id="qdju0d5hHkHI_rLqjAG6-1" parent="qdju0d5hHkHI_rLqjAG6-0" />
        <mxCell id="qdju0d5hHkHI_rLqjAG6-2" value="" style="rounded=0;whiteSpace=wrap;html=1;shadow=1;fontSize=28;fillColor=#f5f5f5;strokeColor=#666666;fontColor=#333333;" vertex="1" parent="qdju0d5hHkHI_rLqjAG6-1">
          <mxGeometry x="670" y="290" width="550" height="300" as="geometry" />
        </mxCell>
        <mxCell id="qdju0d5hHkHI_rLqjAG6-3" value="Monolithic Server" style="text;html=1;strokeColor=none;fillColor=none;align=center;verticalAlign=middle;whiteSpace=wrap;rounded=0;shadow=0;fontSize=28;fontStyle=1" vertex="1" parent="qdju0d5hHkHI_rLqjAG6-1">
          <mxGeometry x="766" y="260" width="387.5" height="20" as="geometry" />
        </mxCell>
        <mxCell id="Ae6oHgwrPdGcW1XUsMYH-21" style="edgeStyle=orthogonalEdgeStyle;rounded=0;orthogonalLoop=1;jettySize=auto;html=1;exitX=1;exitY=0.5;exitDx=0;exitDy=0;fontSize=25;" edge="1" parent="qdju0d5hHkHI_rLqjAG6-1" source="qdju0d5hHkHI_rLqjAG6-4">
          <mxGeometry relative="1" as="geometry">
            <mxPoint x="1270" y="336.8965517241379" as="targetPoint" />
          </mxGeometry>
        </mxCell>
        <mxCell id="qdju0d5hHkHI_rLqjAG6-4" value="Feature A" style="rounded=0;whiteSpace=wrap;html=1;shadow=1;fontSize=21;fillColor=#dae8fc;strokeColor=#6c8ebf;" vertex="1" parent="qdju0d5hHkHI_rLqjAG6-1">
          <mxGeometry x="933.75" y="310" width="270" height="54" as="geometry" />
        </mxCell>
        <mxCell id="Ae6oHgwrPdGcW1XUsMYH-23" style="edgeStyle=orthogonalEdgeStyle;rounded=0;orthogonalLoop=1;jettySize=auto;html=1;exitX=1;exitY=0.5;exitDx=0;exitDy=0;fontSize=25;" edge="1" parent="qdju0d5hHkHI_rLqjAG6-1" source="qdju0d5hHkHI_rLqjAG6-5">
          <mxGeometry relative="1" as="geometry">
            <mxPoint x="1270" y="407.2413793103449" as="targetPoint" />
          </mxGeometry>
        </mxCell>
        <mxCell id="qdju0d5hHkHI_rLqjAG6-5" value="Feature B" style="rounded=0;whiteSpace=wrap;html=1;shadow=1;fontSize=21;fillColor=#ffe6cc;strokeColor=#d79b00;" vertex="1" parent="qdju0d5hHkHI_rLqjAG6-1">
          <mxGeometry x="933.75" y="380" width="270" height="54" as="geometry" />
        </mxCell>
        <mxCell id="Ae6oHgwrPdGcW1XUsMYH-24" style="edgeStyle=orthogonalEdgeStyle;rounded=0;orthogonalLoop=1;jettySize=auto;html=1;exitX=1;exitY=0.5;exitDx=0;exitDy=0;fontSize=25;" edge="1" parent="qdju0d5hHkHI_rLqjAG6-1" source="qdju0d5hHkHI_rLqjAG6-6">
          <mxGeometry relative="1" as="geometry">
            <mxPoint x="1270" y="476.8965517241379" as="targetPoint" />
          </mxGeometry>
        </mxCell>
        <mxCell id="qdju0d5hHkHI_rLqjAG6-6" value="Feature C" style="rounded=0;whiteSpace=wrap;html=1;shadow=1;fontSize=21;fillColor=#d5e8d4;strokeColor=#82b366;" vertex="1" parent="qdju0d5hHkHI_rLqjAG6-1">
          <mxGeometry x="933.75" y="450" width="270" height="54" as="geometry" />
        </mxCell>
        <mxCell id="Ae6oHgwrPdGcW1XUsMYH-25" style="edgeStyle=orthogonalEdgeStyle;rounded=0;orthogonalLoop=1;jettySize=auto;html=1;exitX=1;exitY=0.5;exitDx=0;exitDy=0;fontSize=25;" edge="1" parent="qdju0d5hHkHI_rLqjAG6-1" source="qdju0d5hHkHI_rLqjAG6-9">
          <mxGeometry relative="1" as="geometry">
            <mxPoint x="1270" y="547.2413793103449" as="targetPoint" />
          </mxGeometry>
        </mxCell>
        <mxCell id="qdju0d5hHkHI_rLqjAG6-9" value="Feature D" style="rounded=0;whiteSpace=wrap;html=1;shadow=1;fontSize=21;fillColor=#e1d5e7;strokeColor=#9673a6;" vertex="1" parent="qdju0d5hHkHI_rLqjAG6-1">
          <mxGeometry x="933.75" y="520" width="270" height="54" as="geometry" />
        </mxCell>
        <mxCell id="Ae6oHgwrPdGcW1XUsMYH-9" value="" style="rounded=0;whiteSpace=wrap;html=1;shadow=1;fontSize=28;fillColor=#f5f5f5;strokeColor=#666666;fontColor=#333333;" vertex="1" parent="qdju0d5hHkHI_rLqjAG6-1">
          <mxGeometry x="1270" y="290" width="150" height="300" as="geometry" />
        </mxCell>
        <mxCell id="Ae6oHgwrPdGcW1XUsMYH-11" value="Database" style="text;html=1;strokeColor=none;fillColor=none;align=center;verticalAlign=middle;whiteSpace=wrap;rounded=0;shadow=0;fontSize=28;fontStyle=1" vertex="1" parent="qdju0d5hHkHI_rLqjAG6-1">
          <mxGeometry x="1272.5" y="260" width="145" height="20" as="geometry" />
        </mxCell>
        <mxCell id="Ae6oHgwrPdGcW1XUsMYH-12" value="Data" style="rounded=0;whiteSpace=wrap;html=1;shadow=1;fontSize=21;" vertex="1" parent="qdju0d5hHkHI_rLqjAG6-1">
          <mxGeometry x="1300" y="310" width="90" height="140" as="geometry" />
        </mxCell>
        <mxCell id="Ae6oHgwrPdGcW1XUsMYH-15" value="Data" style="rounded=0;whiteSpace=wrap;html=1;shadow=1;fontSize=21;" vertex="1" parent="qdju0d5hHkHI_rLqjAG6-1">
          <mxGeometry x="1300" y="450" width="90" height="125" as="geometry" />
        </mxCell>
        <mxCell id="SFMWW90m1DYBkXs2s_-V-11" style="edgeStyle=orthogonalEdgeStyle;rounded=0;orthogonalLoop=1;jettySize=auto;html=1;exitX=1;exitY=0.5;exitDx=0;exitDy=0;entryX=0;entryY=0.5;entryDx=0;entryDy=0;fontSize=18;" edge="1" parent="qdju0d5hHkHI_rLqjAG6-1" source="SFMWW90m1DYBkXs2s_-V-6" target="qdju0d5hHkHI_rLqjAG6-4">
          <mxGeometry relative="1" as="geometry" />
        </mxCell>
        <mxCell id="SFMWW90m1DYBkXs2s_-V-12" style="edgeStyle=orthogonalEdgeStyle;rounded=0;orthogonalLoop=1;jettySize=auto;html=1;exitX=1;exitY=0.5;exitDx=0;exitDy=0;fontSize=18;" edge="1" parent="qdju0d5hHkHI_rLqjAG6-1" source="SFMWW90m1DYBkXs2s_-V-6" target="qdju0d5hHkHI_rLqjAG6-5">
          <mxGeometry relative="1" as="geometry" />
        </mxCell>
        <mxCell id="SFMWW90m1DYBkXs2s_-V-13" style="edgeStyle=orthogonalEdgeStyle;rounded=0;orthogonalLoop=1;jettySize=auto;html=1;exitX=1;exitY=0.5;exitDx=0;exitDy=0;entryX=0;entryY=0.5;entryDx=0;entryDy=0;fontSize=18;" edge="1" parent="qdju0d5hHkHI_rLqjAG6-1" source="SFMWW90m1DYBkXs2s_-V-6" target="qdju0d5hHkHI_rLqjAG6-6">
          <mxGeometry relative="1" as="geometry" />
        </mxCell>
        <mxCell id="SFMWW90m1DYBkXs2s_-V-14" style="edgeStyle=orthogonalEdgeStyle;rounded=0;orthogonalLoop=1;jettySize=auto;html=1;exitX=1;exitY=0.5;exitDx=0;exitDy=0;fontSize=18;" edge="1" parent="qdju0d5hHkHI_rLqjAG6-1" source="SFMWW90m1DYBkXs2s_-V-6" target="qdju0d5hHkHI_rLqjAG6-9">
          <mxGeometry relative="1" as="geometry" />
        </mxCell>
        <mxCell id="SFMWW90m1DYBkXs2s_-V-6" value="Router" style="rounded=0;whiteSpace=wrap;html=1;shadow=1;fontSize=18;" vertex="1" parent="qdju0d5hHkHI_rLqjAG6-1">
          <mxGeometry x="800" y="310" width="80" height="270" as="geometry" />
        </mxCell>
        <mxCell id="SFMWW90m1DYBkXs2s_-V-16" style="edgeStyle=orthogonalEdgeStyle;rounded=0;orthogonalLoop=1;jettySize=auto;html=1;exitX=1;exitY=0.5;exitDx=0;exitDy=0;fontSize=18;" edge="1" parent="qdju0d5hHkHI_rLqjAG6-1" source="SFMWW90m1DYBkXs2s_-V-15" target="SFMWW90m1DYBkXs2s_-V-6">
          <mxGeometry relative="1" as="geometry" />
        </mxCell>
        <mxCell id="SFMWW90m1DYBkXs2s_-V-15" value="Auth Middle- ware" style="rounded=0;whiteSpace=wrap;html=1;shadow=1;fontSize=18;" vertex="1" parent="qdju0d5hHkHI_rLqjAG6-1">
          <mxGeometry x="690" y="310" width="80" height="270" as="geometry" />
        </mxCell>
        <mxCell id="aPYvhslZm25v0UadTvk3-0" value="Request" style="rounded=0;whiteSpace=wrap;html=1;shadow=1;strokeWidth=1;fillColor=#f8cecc;fontSize=25;strokeColor=#b85450;fontStyle=1" vertex="1" parent="qdju0d5hHkHI_rLqjAG6-1">
          <mxGeometry x="500" y="434" width="110" height="40" as="geometry" />
        </mxCell>
      </root>
    </mxGraphModel>
  </diagram>
  <diagram id="q1LWnKhVy52rSArpHS_c" name="03 - mo">
    <mxGraphModel dx="639" dy="358" grid="1" gridSize="10" guides="1" tooltips="1" connect="1" arrows="1" fold="1" page="1" pageScale="1" pageWidth="1920" pageHeight="1200" math="0" shadow="0">
      <root>
        <mxCell id="EgdvyRDpH2ENFZy5iqBf-0" />
        <mxCell id="EgdvyRDpH2ENFZy5iqBf-1" parent="EgdvyRDpH2ENFZy5iqBf-0" />
        <mxCell id="X-0SaHX0QUMAPCzd0TlN-1" value="" style="rounded=0;whiteSpace=wrap;html=1;strokeWidth=1;fontSize=25;shadow=1;fontStyle=1;fillColor=#dae8fc;strokeColor=#6c8ebf;" vertex="1" parent="EgdvyRDpH2ENFZy5iqBf-1">
          <mxGeometry x="670" y="210" width="530" height="290" as="geometry" />
        </mxCell>
        <mxCell id="I__5L0eOrD4QGF3WHaje-0" value="Routing" style="rounded=0;whiteSpace=wrap;html=1;shadow=1;strokeWidth=1;fillColor=#f5f5f5;fontSize=18;strokeColor=#666666;fontColor=#333333;" vertex="1" parent="EgdvyRDpH2ENFZy5iqBf-1">
          <mxGeometry x="680" y="310" width="120" height="60" as="geometry" />
        </mxCell>
        <mxCell id="I__5L0eOrD4QGF3WHaje-1" value="Middlewares" style="rounded=0;whiteSpace=wrap;html=1;shadow=1;strokeWidth=1;fillColor=#f5f5f5;fontSize=18;strokeColor=#666666;fontColor=#333333;" vertex="1" parent="EgdvyRDpH2ENFZy5iqBf-1">
          <mxGeometry x="810" y="310" width="120" height="60" as="geometry" />
        </mxCell>
        <mxCell id="I__5L0eOrD4QGF3WHaje-2" value="Business Logic" style="rounded=0;whiteSpace=wrap;html=1;shadow=1;strokeWidth=1;fillColor=#f5f5f5;fontSize=18;strokeColor=#666666;fontColor=#333333;" vertex="1" parent="EgdvyRDpH2ENFZy5iqBf-1">
          <mxGeometry x="940" y="310" width="120" height="60" as="geometry" />
        </mxCell>
        <mxCell id="I__5L0eOrD4QGF3WHaje-3" value="Database access" style="rounded=0;whiteSpace=wrap;html=1;shadow=1;strokeWidth=1;fillColor=#f5f5f5;fontSize=18;strokeColor=#666666;fontColor=#333333;" vertex="1" parent="EgdvyRDpH2ENFZy5iqBf-1">
          <mxGeometry x="1070" y="310" width="120" height="60" as="geometry" />
        </mxCell>
        <mxCell id="I__5L0eOrD4QGF3WHaje-4" value="&lt;span style=&quot;&quot;&gt;Monoliths contain&lt;/span&gt;" style="text;html=1;strokeColor=none;fillColor=none;align=center;verticalAlign=middle;whiteSpace=wrap;rounded=0;shadow=1;fontSize=25;fontStyle=1" vertex="1" parent="EgdvyRDpH2ENFZy5iqBf-1">
          <mxGeometry x="790" y="250" width="290" height="20" as="geometry" />
        </mxCell>
        <mxCell id="I__5L0eOrD4QGF3WHaje-5" value="&lt;span style=&quot;font-weight: normal&quot;&gt;to implement &lt;/span&gt;all features&lt;span style=&quot;font-weight: normal&quot;&gt;&amp;nbsp;of our app in &lt;/span&gt;one codebase" style="text;html=1;strokeColor=none;fillColor=none;align=center;verticalAlign=middle;whiteSpace=wrap;rounded=0;shadow=1;fontSize=25;fontStyle=1" vertex="1" parent="EgdvyRDpH2ENFZy5iqBf-1">
          <mxGeometry x="750" y="420" width="370" height="20" as="geometry" />
        </mxCell>
      </root>
    </mxGraphModel>
  </diagram>
  <diagram name="04 - ms" id="5DOQPpeS0FoUbYXxtyiY">
    <mxGraphModel dx="639" dy="358" grid="1" gridSize="10" guides="1" tooltips="1" connect="1" arrows="1" fold="1" page="1" pageScale="1" pageWidth="1920" pageHeight="1200" math="0" shadow="0">
      <root>
        <mxCell id="BGy8uozcgV4B67D6VQ65-0" />
        <mxCell id="BGy8uozcgV4B67D6VQ65-1" parent="BGy8uozcgV4B67D6VQ65-0" />
        <mxCell id="ZZCQoVFRMK9NWUgwcBHs-0" value="" style="rounded=0;whiteSpace=wrap;html=1;strokeWidth=1;fontSize=25;shadow=1;fontStyle=1;fillColor=#e1d5e7;strokeColor=#9673a6;" vertex="1" parent="BGy8uozcgV4B67D6VQ65-1">
          <mxGeometry x="670" y="210" width="530" height="290" as="geometry" />
        </mxCell>
        <mxCell id="ZZCQoVFRMK9NWUgwcBHs-1" value="Routing" style="rounded=0;whiteSpace=wrap;html=1;shadow=1;strokeWidth=1;fillColor=#f5f5f5;fontSize=18;strokeColor=#666666;fontColor=#333333;" vertex="1" parent="BGy8uozcgV4B67D6VQ65-1">
          <mxGeometry x="680" y="310" width="120" height="60" as="geometry" />
        </mxCell>
        <mxCell id="ZZCQoVFRMK9NWUgwcBHs-2" value="Middlewares" style="rounded=0;whiteSpace=wrap;html=1;shadow=1;strokeWidth=1;fillColor=#f5f5f5;fontSize=18;strokeColor=#666666;fontColor=#333333;" vertex="1" parent="BGy8uozcgV4B67D6VQ65-1">
          <mxGeometry x="810" y="310" width="120" height="60" as="geometry" />
        </mxCell>
        <mxCell id="ZZCQoVFRMK9NWUgwcBHs-3" value="Business Logic" style="rounded=0;whiteSpace=wrap;html=1;shadow=1;strokeWidth=1;fillColor=#f5f5f5;fontSize=18;strokeColor=#666666;fontColor=#333333;" vertex="1" parent="BGy8uozcgV4B67D6VQ65-1">
          <mxGeometry x="940" y="310" width="120" height="60" as="geometry" />
        </mxCell>
        <mxCell id="ZZCQoVFRMK9NWUgwcBHs-4" value="Database access" style="rounded=0;whiteSpace=wrap;html=1;shadow=1;strokeWidth=1;fillColor=#f5f5f5;fontSize=18;strokeColor=#666666;fontColor=#333333;" vertex="1" parent="BGy8uozcgV4B67D6VQ65-1">
          <mxGeometry x="1070" y="310" width="120" height="60" as="geometry" />
        </mxCell>
        <mxCell id="ZZCQoVFRMK9NWUgwcBHs-5" value="&lt;span&gt;Microservices contain&lt;/span&gt;" style="text;html=1;strokeColor=none;fillColor=none;align=center;verticalAlign=middle;whiteSpace=wrap;rounded=0;shadow=1;fontSize=25;fontStyle=1" vertex="1" parent="BGy8uozcgV4B67D6VQ65-1">
          <mxGeometry x="790" y="250" width="290" height="20" as="geometry" />
        </mxCell>
        <mxCell id="ZZCQoVFRMK9NWUgwcBHs-6" value="&lt;span style=&quot;font-weight: normal&quot;&gt;to implement &lt;/span&gt;one feature&lt;span style=&quot;font-weight: normal&quot;&gt;&amp;nbsp;of our app in &lt;/span&gt;separate codebases" style="text;html=1;strokeColor=none;fillColor=none;align=center;verticalAlign=middle;whiteSpace=wrap;rounded=0;shadow=1;fontSize=25;fontStyle=1" vertex="1" parent="BGy8uozcgV4B67D6VQ65-1">
          <mxGeometry x="750" y="400" width="370" height="60" as="geometry" />
        </mxCell>
      </root>
    </mxGraphModel>
  </diagram>
  <diagram name="03 - ms" id="Fg-ipx4AdJFifCbJKvnk">
    <mxGraphModel dx="1001" dy="561" grid="1" gridSize="10" guides="1" tooltips="1" connect="1" arrows="1" fold="1" page="1" pageScale="1" pageWidth="1920" pageHeight="1200" math="0" shadow="0">
      <root>
        <mxCell id="rhPO4cbfaniNNZFxSH0U-0" />
        <mxCell id="rhPO4cbfaniNNZFxSH0U-1" parent="rhPO4cbfaniNNZFxSH0U-0" />
        <mxCell id="rhPO4cbfaniNNZFxSH0U-2" value="" style="rounded=0;whiteSpace=wrap;html=1;shadow=1;fontSize=28;fillColor=#f5f5f5;strokeColor=#666666;fontColor=#333333;" vertex="1" parent="rhPO4cbfaniNNZFxSH0U-1">
          <mxGeometry x="670" y="297" width="550" height="80" as="geometry" />
        </mxCell>
        <mxCell id="rhPO4cbfaniNNZFxSH0U-3" value="Service A" style="text;html=1;strokeColor=none;fillColor=none;align=center;verticalAlign=middle;whiteSpace=wrap;rounded=0;shadow=0;fontSize=22;fontStyle=1" vertex="1" parent="rhPO4cbfaniNNZFxSH0U-1">
          <mxGeometry x="766" y="274" width="387.5" height="20" as="geometry" />
        </mxCell>
        <mxCell id="rhPO4cbfaniNNZFxSH0U-4" style="edgeStyle=orthogonalEdgeStyle;rounded=0;orthogonalLoop=1;jettySize=auto;html=1;exitX=1;exitY=0.5;exitDx=0;exitDy=0;fontSize=25;" edge="1" parent="rhPO4cbfaniNNZFxSH0U-1" source="rhPO4cbfaniNNZFxSH0U-5">
          <mxGeometry relative="1" as="geometry">
            <mxPoint x="1270" y="336.8965517241379" as="targetPoint" />
          </mxGeometry>
        </mxCell>
        <mxCell id="rhPO4cbfaniNNZFxSH0U-5" value="Feature A" style="rounded=0;whiteSpace=wrap;html=1;shadow=1;fontSize=21;fillColor=#dae8fc;strokeColor=#6c8ebf;" vertex="1" parent="rhPO4cbfaniNNZFxSH0U-1">
          <mxGeometry x="933.75" y="310" width="270" height="54" as="geometry" />
        </mxCell>
        <mxCell id="rhPO4cbfaniNNZFxSH0U-12" value="" style="rounded=0;whiteSpace=wrap;html=1;shadow=1;fontSize=28;fillColor=#f5f5f5;strokeColor=#666666;fontColor=#333333;" vertex="1" parent="rhPO4cbfaniNNZFxSH0U-1">
          <mxGeometry x="1270" y="300" width="150" height="80" as="geometry" />
        </mxCell>
        <mxCell id="rhPO4cbfaniNNZFxSH0U-13" value="DB For Service A" style="text;html=1;strokeColor=none;fillColor=none;align=center;verticalAlign=middle;whiteSpace=wrap;rounded=0;shadow=0;fontSize=22;fontStyle=1" vertex="1" parent="rhPO4cbfaniNNZFxSH0U-1">
          <mxGeometry x="1240" y="277" width="207.5" height="20" as="geometry" />
        </mxCell>
        <mxCell id="rhPO4cbfaniNNZFxSH0U-14" value="Data" style="rounded=0;whiteSpace=wrap;html=1;shadow=1;fontSize=21;" vertex="1" parent="rhPO4cbfaniNNZFxSH0U-1">
          <mxGeometry x="1290" y="315" width="110" height="50" as="geometry" />
        </mxCell>
        <mxCell id="Ko9uu86v8LSZFAt5tabG-0" style="edgeStyle=orthogonalEdgeStyle;rounded=0;orthogonalLoop=1;jettySize=auto;html=1;exitX=1;exitY=0.5;exitDx=0;exitDy=0;fontSize=22;" edge="1" parent="rhPO4cbfaniNNZFxSH0U-1" source="rhPO4cbfaniNNZFxSH0U-21" target="taV2JAXbwoj33g3zxdai-12">
          <mxGeometry relative="1" as="geometry" />
        </mxCell>
        <mxCell id="rhPO4cbfaniNNZFxSH0U-21" value="Auth Middle- ware" style="rounded=0;whiteSpace=wrap;html=1;shadow=1;fontSize=18;" vertex="1" parent="rhPO4cbfaniNNZFxSH0U-1">
          <mxGeometry x="690" y="310" width="110" height="54" as="geometry" />
        </mxCell>
        <mxCell id="Ko9uu86v8LSZFAt5tabG-4" style="edgeStyle=orthogonalEdgeStyle;rounded=0;orthogonalLoop=1;jettySize=auto;html=1;exitX=1;exitY=0.5;exitDx=0;exitDy=0;fontSize=22;" edge="1" parent="rhPO4cbfaniNNZFxSH0U-1" source="taV2JAXbwoj33g3zxdai-12" target="rhPO4cbfaniNNZFxSH0U-5">
          <mxGeometry relative="1" as="geometry" />
        </mxCell>
        <mxCell id="taV2JAXbwoj33g3zxdai-12" value="Router" style="rounded=0;whiteSpace=wrap;html=1;shadow=1;fontSize=18;" vertex="1" parent="rhPO4cbfaniNNZFxSH0U-1">
          <mxGeometry x="820" y="310" width="80" height="54" as="geometry" />
        </mxCell>
        <mxCell id="taV2JAXbwoj33g3zxdai-16" value="" style="rounded=0;whiteSpace=wrap;html=1;shadow=1;fontSize=28;fillColor=#f5f5f5;strokeColor=#666666;fontColor=#333333;" vertex="1" parent="rhPO4cbfaniNNZFxSH0U-1">
          <mxGeometry x="670" y="423" width="550" height="80" as="geometry" />
        </mxCell>
        <mxCell id="taV2JAXbwoj33g3zxdai-17" value="Service B" style="text;html=1;strokeColor=none;fillColor=none;align=center;verticalAlign=middle;whiteSpace=wrap;rounded=0;shadow=0;fontSize=22;fontStyle=1" vertex="1" parent="rhPO4cbfaniNNZFxSH0U-1">
          <mxGeometry x="766" y="400" width="387.5" height="20" as="geometry" />
        </mxCell>
        <mxCell id="taV2JAXbwoj33g3zxdai-18" style="edgeStyle=orthogonalEdgeStyle;rounded=0;orthogonalLoop=1;jettySize=auto;html=1;exitX=1;exitY=0.5;exitDx=0;exitDy=0;fontSize=25;" edge="1" parent="rhPO4cbfaniNNZFxSH0U-1" source="taV2JAXbwoj33g3zxdai-19">
          <mxGeometry relative="1" as="geometry">
            <mxPoint x="1270" y="462.8965517241379" as="targetPoint" />
          </mxGeometry>
        </mxCell>
        <mxCell id="taV2JAXbwoj33g3zxdai-19" value="Feature B" style="rounded=0;whiteSpace=wrap;html=1;shadow=1;fontSize=21;fillColor=#fff2cc;strokeColor=#d6b656;" vertex="1" parent="rhPO4cbfaniNNZFxSH0U-1">
          <mxGeometry x="933.75" y="436" width="270" height="54" as="geometry" />
        </mxCell>
        <mxCell id="taV2JAXbwoj33g3zxdai-20" value="" style="rounded=0;whiteSpace=wrap;html=1;shadow=1;fontSize=28;fillColor=#f5f5f5;strokeColor=#666666;fontColor=#333333;" vertex="1" parent="rhPO4cbfaniNNZFxSH0U-1">
          <mxGeometry x="1270" y="426" width="150" height="80" as="geometry" />
        </mxCell>
        <mxCell id="taV2JAXbwoj33g3zxdai-21" value="DB For Service B" style="text;html=1;strokeColor=none;fillColor=none;align=center;verticalAlign=middle;whiteSpace=wrap;rounded=0;shadow=0;fontSize=22;fontStyle=1" vertex="1" parent="rhPO4cbfaniNNZFxSH0U-1">
          <mxGeometry x="1240" y="403" width="207.5" height="20" as="geometry" />
        </mxCell>
        <mxCell id="taV2JAXbwoj33g3zxdai-22" value="Data" style="rounded=0;whiteSpace=wrap;html=1;shadow=1;fontSize=21;" vertex="1" parent="rhPO4cbfaniNNZFxSH0U-1">
          <mxGeometry x="1290" y="441" width="110" height="50" as="geometry" />
        </mxCell>
        <mxCell id="Ko9uu86v8LSZFAt5tabG-1" style="edgeStyle=orthogonalEdgeStyle;rounded=0;orthogonalLoop=1;jettySize=auto;html=1;exitX=1;exitY=0.5;exitDx=0;exitDy=0;fontSize=22;" edge="1" parent="rhPO4cbfaniNNZFxSH0U-1" source="taV2JAXbwoj33g3zxdai-23" target="taV2JAXbwoj33g3zxdai-24">
          <mxGeometry relative="1" as="geometry" />
        </mxCell>
        <mxCell id="taV2JAXbwoj33g3zxdai-23" value="Auth Middle- ware" style="rounded=0;whiteSpace=wrap;html=1;shadow=1;fontSize=18;" vertex="1" parent="rhPO4cbfaniNNZFxSH0U-1">
          <mxGeometry x="690" y="436" width="110" height="54" as="geometry" />
        </mxCell>
        <mxCell id="Ko9uu86v8LSZFAt5tabG-5" style="edgeStyle=orthogonalEdgeStyle;rounded=0;orthogonalLoop=1;jettySize=auto;html=1;exitX=1;exitY=0.5;exitDx=0;exitDy=0;fontSize=22;" edge="1" parent="rhPO4cbfaniNNZFxSH0U-1" source="taV2JAXbwoj33g3zxdai-24" target="taV2JAXbwoj33g3zxdai-19">
          <mxGeometry relative="1" as="geometry" />
        </mxCell>
        <mxCell id="taV2JAXbwoj33g3zxdai-24" value="Router" style="rounded=0;whiteSpace=wrap;html=1;shadow=1;fontSize=18;" vertex="1" parent="rhPO4cbfaniNNZFxSH0U-1">
          <mxGeometry x="820" y="436" width="80" height="54" as="geometry" />
        </mxCell>
        <mxCell id="taV2JAXbwoj33g3zxdai-25" value="" style="rounded=0;whiteSpace=wrap;html=1;shadow=1;fontSize=28;fillColor=#f5f5f5;strokeColor=#666666;fontColor=#333333;" vertex="1" parent="rhPO4cbfaniNNZFxSH0U-1">
          <mxGeometry x="670" y="553" width="550" height="80" as="geometry" />
        </mxCell>
        <mxCell id="taV2JAXbwoj33g3zxdai-26" value="Service C" style="text;html=1;strokeColor=none;fillColor=none;align=center;verticalAlign=middle;whiteSpace=wrap;rounded=0;shadow=0;fontSize=22;fontStyle=1" vertex="1" parent="rhPO4cbfaniNNZFxSH0U-1">
          <mxGeometry x="766" y="530" width="387.5" height="20" as="geometry" />
        </mxCell>
        <mxCell id="taV2JAXbwoj33g3zxdai-27" style="edgeStyle=orthogonalEdgeStyle;rounded=0;orthogonalLoop=1;jettySize=auto;html=1;exitX=1;exitY=0.5;exitDx=0;exitDy=0;fontSize=25;" edge="1" parent="rhPO4cbfaniNNZFxSH0U-1" source="taV2JAXbwoj33g3zxdai-28">
          <mxGeometry relative="1" as="geometry">
            <mxPoint x="1270" y="592.8965517241378" as="targetPoint" />
          </mxGeometry>
        </mxCell>
        <mxCell id="taV2JAXbwoj33g3zxdai-28" value="Feature C" style="rounded=0;whiteSpace=wrap;html=1;shadow=1;fontSize=21;fillColor=#d5e8d4;strokeColor=#82b366;" vertex="1" parent="rhPO4cbfaniNNZFxSH0U-1">
          <mxGeometry x="933.75" y="566" width="270" height="54" as="geometry" />
        </mxCell>
        <mxCell id="taV2JAXbwoj33g3zxdai-29" value="" style="rounded=0;whiteSpace=wrap;html=1;shadow=1;fontSize=28;fillColor=#f5f5f5;strokeColor=#666666;fontColor=#333333;" vertex="1" parent="rhPO4cbfaniNNZFxSH0U-1">
          <mxGeometry x="1270" y="556" width="150" height="80" as="geometry" />
        </mxCell>
        <mxCell id="taV2JAXbwoj33g3zxdai-30" value="DB For Service C" style="text;html=1;strokeColor=none;fillColor=none;align=center;verticalAlign=middle;whiteSpace=wrap;rounded=0;shadow=0;fontSize=22;fontStyle=1" vertex="1" parent="rhPO4cbfaniNNZFxSH0U-1">
          <mxGeometry x="1240" y="533" width="207.5" height="20" as="geometry" />
        </mxCell>
        <mxCell id="taV2JAXbwoj33g3zxdai-31" value="Data" style="rounded=0;whiteSpace=wrap;html=1;shadow=1;fontSize=21;" vertex="1" parent="rhPO4cbfaniNNZFxSH0U-1">
          <mxGeometry x="1290" y="571" width="110" height="50" as="geometry" />
        </mxCell>
        <mxCell id="Ko9uu86v8LSZFAt5tabG-2" style="edgeStyle=orthogonalEdgeStyle;rounded=0;orthogonalLoop=1;jettySize=auto;html=1;exitX=1;exitY=0.5;exitDx=0;exitDy=0;fontSize=22;" edge="1" parent="rhPO4cbfaniNNZFxSH0U-1" source="taV2JAXbwoj33g3zxdai-32" target="taV2JAXbwoj33g3zxdai-33">
          <mxGeometry relative="1" as="geometry" />
        </mxCell>
        <mxCell id="taV2JAXbwoj33g3zxdai-32" value="Auth Middle- ware" style="rounded=0;whiteSpace=wrap;html=1;shadow=1;fontSize=18;" vertex="1" parent="rhPO4cbfaniNNZFxSH0U-1">
          <mxGeometry x="690" y="566" width="110" height="54" as="geometry" />
        </mxCell>
        <mxCell id="Ko9uu86v8LSZFAt5tabG-6" style="edgeStyle=orthogonalEdgeStyle;rounded=0;orthogonalLoop=1;jettySize=auto;html=1;exitX=1;exitY=0.5;exitDx=0;exitDy=0;fontSize=22;" edge="1" parent="rhPO4cbfaniNNZFxSH0U-1" source="taV2JAXbwoj33g3zxdai-33" target="taV2JAXbwoj33g3zxdai-28">
          <mxGeometry relative="1" as="geometry" />
        </mxCell>
        <mxCell id="taV2JAXbwoj33g3zxdai-33" value="Router" style="rounded=0;whiteSpace=wrap;html=1;shadow=1;fontSize=18;" vertex="1" parent="rhPO4cbfaniNNZFxSH0U-1">
          <mxGeometry x="820" y="566" width="80" height="54" as="geometry" />
        </mxCell>
        <mxCell id="taV2JAXbwoj33g3zxdai-34" value="" style="rounded=0;whiteSpace=wrap;html=1;shadow=1;fontSize=28;fillColor=#f5f5f5;strokeColor=#666666;fontColor=#333333;" vertex="1" parent="rhPO4cbfaniNNZFxSH0U-1">
          <mxGeometry x="670" y="683" width="550" height="80" as="geometry" />
        </mxCell>
        <mxCell id="taV2JAXbwoj33g3zxdai-35" value="Service D" style="text;html=1;strokeColor=none;fillColor=none;align=center;verticalAlign=middle;whiteSpace=wrap;rounded=0;shadow=0;fontSize=22;fontStyle=1" vertex="1" parent="rhPO4cbfaniNNZFxSH0U-1">
          <mxGeometry x="766" y="660" width="387.5" height="20" as="geometry" />
        </mxCell>
        <mxCell id="taV2JAXbwoj33g3zxdai-36" style="edgeStyle=orthogonalEdgeStyle;rounded=0;orthogonalLoop=1;jettySize=auto;html=1;exitX=1;exitY=0.5;exitDx=0;exitDy=0;fontSize=25;" edge="1" parent="rhPO4cbfaniNNZFxSH0U-1" source="taV2JAXbwoj33g3zxdai-37">
          <mxGeometry relative="1" as="geometry">
            <mxPoint x="1270" y="722.8965517241377" as="targetPoint" />
          </mxGeometry>
        </mxCell>
        <mxCell id="taV2JAXbwoj33g3zxdai-37" value="Feature D" style="rounded=0;whiteSpace=wrap;html=1;shadow=1;fontSize=21;fillColor=#e1d5e7;strokeColor=#9673a6;" vertex="1" parent="rhPO4cbfaniNNZFxSH0U-1">
          <mxGeometry x="933.75" y="696" width="270" height="54" as="geometry" />
        </mxCell>
        <mxCell id="taV2JAXbwoj33g3zxdai-38" value="" style="rounded=0;whiteSpace=wrap;html=1;shadow=1;fontSize=28;fillColor=#f5f5f5;strokeColor=#666666;fontColor=#333333;" vertex="1" parent="rhPO4cbfaniNNZFxSH0U-1">
          <mxGeometry x="1270" y="686" width="150" height="80" as="geometry" />
        </mxCell>
        <mxCell id="taV2JAXbwoj33g3zxdai-39" value="DB For Service D" style="text;html=1;strokeColor=none;fillColor=none;align=center;verticalAlign=middle;whiteSpace=wrap;rounded=0;shadow=0;fontSize=22;fontStyle=1" vertex="1" parent="rhPO4cbfaniNNZFxSH0U-1">
          <mxGeometry x="1240" y="663" width="207.5" height="20" as="geometry" />
        </mxCell>
        <mxCell id="taV2JAXbwoj33g3zxdai-40" value="Data" style="rounded=0;whiteSpace=wrap;html=1;shadow=1;fontSize=21;" vertex="1" parent="rhPO4cbfaniNNZFxSH0U-1">
          <mxGeometry x="1290" y="701" width="110" height="50" as="geometry" />
        </mxCell>
        <mxCell id="Ko9uu86v8LSZFAt5tabG-3" style="edgeStyle=orthogonalEdgeStyle;rounded=0;orthogonalLoop=1;jettySize=auto;html=1;exitX=1;exitY=0.5;exitDx=0;exitDy=0;fontSize=22;" edge="1" parent="rhPO4cbfaniNNZFxSH0U-1" source="taV2JAXbwoj33g3zxdai-41" target="taV2JAXbwoj33g3zxdai-42">
          <mxGeometry relative="1" as="geometry" />
        </mxCell>
        <mxCell id="taV2JAXbwoj33g3zxdai-41" value="Auth Middle- ware" style="rounded=0;whiteSpace=wrap;html=1;shadow=1;fontSize=18;" vertex="1" parent="rhPO4cbfaniNNZFxSH0U-1">
          <mxGeometry x="690" y="696" width="110" height="54" as="geometry" />
        </mxCell>
        <mxCell id="Ko9uu86v8LSZFAt5tabG-7" style="edgeStyle=orthogonalEdgeStyle;rounded=0;orthogonalLoop=1;jettySize=auto;html=1;exitX=1;exitY=0.5;exitDx=0;exitDy=0;fontSize=22;" edge="1" parent="rhPO4cbfaniNNZFxSH0U-1" source="taV2JAXbwoj33g3zxdai-42" target="taV2JAXbwoj33g3zxdai-37">
          <mxGeometry relative="1" as="geometry" />
        </mxCell>
        <mxCell id="taV2JAXbwoj33g3zxdai-42" value="Router" style="rounded=0;whiteSpace=wrap;html=1;shadow=1;fontSize=18;" vertex="1" parent="rhPO4cbfaniNNZFxSH0U-1">
          <mxGeometry x="820" y="696" width="80" height="54" as="geometry" />
        </mxCell>
        <mxCell id="rhPO4cbfaniNNZFxSH0U-16" value="Request" style="rounded=0;whiteSpace=wrap;html=1;shadow=1;strokeWidth=1;fillColor=#f8cecc;fontSize=25;strokeColor=#b85450;fontStyle=1" vertex="1" parent="rhPO4cbfaniNNZFxSH0U-1">
          <mxGeometry x="490" y="530" width="110" height="40" as="geometry" />
        </mxCell>
      </root>
    </mxGraphModel>
  </diagram>
  <diagram name="03 - ms" id="dbvr9IF6CNtOpyQZGV_K">
    <mxGraphModel dx="1036" dy="510" grid="1" gridSize="10" guides="1" tooltips="1" connect="1" arrows="1" fold="1" page="1" pageScale="1" pageWidth="1920" pageHeight="1200" math="0" shadow="0">
      <root>
        <mxCell id="9Hq40vW_agEkmxD8z5mN-0" />
        <mxCell id="9Hq40vW_agEkmxD8z5mN-1" parent="9Hq40vW_agEkmxD8z5mN-0" />
        <mxCell id="9Hq40vW_agEkmxD8z5mN-2" value="Router" style="rounded=0;whiteSpace=wrap;html=1;shadow=1;fontSize=25;fillColor=#f5f5f5;strokeColor=#666666;fontColor=#333333;" vertex="1" parent="9Hq40vW_agEkmxD8z5mN-1">
          <mxGeometry x="750" y="290" width="120" height="300" as="geometry" />
        </mxCell>
        <mxCell id="9Hq40vW_agEkmxD8z5mN-3" value="" style="rounded=0;whiteSpace=wrap;html=1;shadow=1;fontSize=28;fillColor=#f5f5f5;strokeColor=#666666;fontColor=#333333;" vertex="1" parent="9Hq40vW_agEkmxD8z5mN-1">
          <mxGeometry x="870" y="290" width="350" height="300" as="geometry" />
        </mxCell>
        <mxCell id="9Hq40vW_agEkmxD8z5mN-4" style="edgeStyle=orthogonalEdgeStyle;rounded=0;orthogonalLoop=1;jettySize=auto;html=1;exitX=1;exitY=0.5;exitDx=0;exitDy=0;entryX=0;entryY=0.5;entryDx=0;entryDy=0;fontSize=28;" edge="1" parent="9Hq40vW_agEkmxD8z5mN-1" source="9Hq40vW_agEkmxD8z5mN-2" target="9Hq40vW_agEkmxD8z5mN-10">
          <mxGeometry relative="1" as="geometry" />
        </mxCell>
        <mxCell id="9Hq40vW_agEkmxD8z5mN-5" style="edgeStyle=orthogonalEdgeStyle;rounded=0;orthogonalLoop=1;jettySize=auto;html=1;exitX=1;exitY=0.5;exitDx=0;exitDy=0;fontSize=28;" edge="1" parent="9Hq40vW_agEkmxD8z5mN-1" source="9Hq40vW_agEkmxD8z5mN-2" target="9Hq40vW_agEkmxD8z5mN-12">
          <mxGeometry relative="1" as="geometry" />
        </mxCell>
        <mxCell id="9Hq40vW_agEkmxD8z5mN-6" style="edgeStyle=orthogonalEdgeStyle;rounded=0;orthogonalLoop=1;jettySize=auto;html=1;exitX=1;exitY=0.5;exitDx=0;exitDy=0;fontSize=28;" edge="1" parent="9Hq40vW_agEkmxD8z5mN-1" source="9Hq40vW_agEkmxD8z5mN-2" target="9Hq40vW_agEkmxD8z5mN-14">
          <mxGeometry relative="1" as="geometry" />
        </mxCell>
        <mxCell id="9Hq40vW_agEkmxD8z5mN-7" style="edgeStyle=orthogonalEdgeStyle;rounded=0;orthogonalLoop=1;jettySize=auto;html=1;exitX=1;exitY=0.5;exitDx=0;exitDy=0;entryX=0;entryY=0.5;entryDx=0;entryDy=0;fontSize=28;" edge="1" parent="9Hq40vW_agEkmxD8z5mN-1" source="9Hq40vW_agEkmxD8z5mN-2" target="9Hq40vW_agEkmxD8z5mN-16">
          <mxGeometry relative="1" as="geometry" />
        </mxCell>
        <mxCell id="9Hq40vW_agEkmxD8z5mN-8" value="Monolithic Server" style="text;html=1;strokeColor=none;fillColor=none;align=center;verticalAlign=middle;whiteSpace=wrap;rounded=0;shadow=0;fontSize=28;fontStyle=1" vertex="1" parent="9Hq40vW_agEkmxD8z5mN-1">
          <mxGeometry x="902.5" y="260" width="285" height="20" as="geometry" />
        </mxCell>
        <mxCell id="9Hq40vW_agEkmxD8z5mN-9" style="edgeStyle=orthogonalEdgeStyle;rounded=0;orthogonalLoop=1;jettySize=auto;html=1;exitX=1;exitY=0.5;exitDx=0;exitDy=0;fontSize=25;" edge="1" parent="9Hq40vW_agEkmxD8z5mN-1" source="9Hq40vW_agEkmxD8z5mN-10">
          <mxGeometry relative="1" as="geometry">
            <mxPoint x="1270" y="336.8965517241379" as="targetPoint" />
          </mxGeometry>
        </mxCell>
        <mxCell id="9Hq40vW_agEkmxD8z5mN-10" value="Authentication" style="rounded=0;whiteSpace=wrap;html=1;shadow=1;fontSize=21;fillColor=#dae8fc;strokeColor=#6c8ebf;" vertex="1" parent="9Hq40vW_agEkmxD8z5mN-1">
          <mxGeometry x="933.75" y="310" width="270" height="54" as="geometry" />
        </mxCell>
        <mxCell id="9Hq40vW_agEkmxD8z5mN-11" style="edgeStyle=orthogonalEdgeStyle;rounded=0;orthogonalLoop=1;jettySize=auto;html=1;exitX=1;exitY=0.5;exitDx=0;exitDy=0;fontSize=25;" edge="1" parent="9Hq40vW_agEkmxD8z5mN-1" source="9Hq40vW_agEkmxD8z5mN-12">
          <mxGeometry relative="1" as="geometry">
            <mxPoint x="1270" y="407.2413793103449" as="targetPoint" />
          </mxGeometry>
        </mxCell>
        <mxCell id="9Hq40vW_agEkmxD8z5mN-12" value="Feature A" style="rounded=0;whiteSpace=wrap;html=1;shadow=1;fontSize=21;fillColor=#ffe6cc;strokeColor=#d79b00;" vertex="1" parent="9Hq40vW_agEkmxD8z5mN-1">
          <mxGeometry x="933.75" y="380" width="270" height="54" as="geometry" />
        </mxCell>
        <mxCell id="9Hq40vW_agEkmxD8z5mN-13" style="edgeStyle=orthogonalEdgeStyle;rounded=0;orthogonalLoop=1;jettySize=auto;html=1;exitX=1;exitY=0.5;exitDx=0;exitDy=0;fontSize=25;" edge="1" parent="9Hq40vW_agEkmxD8z5mN-1" source="9Hq40vW_agEkmxD8z5mN-14">
          <mxGeometry relative="1" as="geometry">
            <mxPoint x="1270" y="476.8965517241379" as="targetPoint" />
          </mxGeometry>
        </mxCell>
        <mxCell id="9Hq40vW_agEkmxD8z5mN-14" value="Feature B" style="rounded=0;whiteSpace=wrap;html=1;shadow=1;fontSize=21;fillColor=#d5e8d4;strokeColor=#82b366;" vertex="1" parent="9Hq40vW_agEkmxD8z5mN-1">
          <mxGeometry x="933.75" y="450" width="270" height="54" as="geometry" />
        </mxCell>
        <mxCell id="9Hq40vW_agEkmxD8z5mN-15" style="edgeStyle=orthogonalEdgeStyle;rounded=0;orthogonalLoop=1;jettySize=auto;html=1;exitX=1;exitY=0.5;exitDx=0;exitDy=0;fontSize=25;" edge="1" parent="9Hq40vW_agEkmxD8z5mN-1" source="9Hq40vW_agEkmxD8z5mN-16">
          <mxGeometry relative="1" as="geometry">
            <mxPoint x="1270" y="547.2413793103449" as="targetPoint" />
          </mxGeometry>
        </mxCell>
        <mxCell id="9Hq40vW_agEkmxD8z5mN-16" value="Feature C" style="rounded=0;whiteSpace=wrap;html=1;shadow=1;fontSize=21;fillColor=#e1d5e7;strokeColor=#9673a6;" vertex="1" parent="9Hq40vW_agEkmxD8z5mN-1">
          <mxGeometry x="933.75" y="520" width="270" height="54" as="geometry" />
        </mxCell>
        <mxCell id="9Hq40vW_agEkmxD8z5mN-17" style="edgeStyle=orthogonalEdgeStyle;rounded=0;orthogonalLoop=1;jettySize=auto;html=1;exitX=1;exitY=0.5;exitDx=0;exitDy=0;fontSize=28;" edge="1" parent="9Hq40vW_agEkmxD8z5mN-1" source="9Hq40vW_agEkmxD8z5mN-18" target="9Hq40vW_agEkmxD8z5mN-2">
          <mxGeometry relative="1" as="geometry" />
        </mxCell>
        <mxCell id="9Hq40vW_agEkmxD8z5mN-18" value="Request" style="text;html=1;strokeColor=none;fillColor=none;align=center;verticalAlign=middle;whiteSpace=wrap;rounded=0;fontSize=25;" vertex="1" parent="9Hq40vW_agEkmxD8z5mN-1">
          <mxGeometry x="590" y="430" width="110" height="20" as="geometry" />
        </mxCell>
        <mxCell id="9Hq40vW_agEkmxD8z5mN-19" value="" style="rounded=0;whiteSpace=wrap;html=1;shadow=1;fontSize=28;fillColor=#f5f5f5;strokeColor=#666666;fontColor=#333333;" vertex="1" parent="9Hq40vW_agEkmxD8z5mN-1">
          <mxGeometry x="1270" y="290" width="150" height="300" as="geometry" />
        </mxCell>
        <mxCell id="9Hq40vW_agEkmxD8z5mN-20" value="Database" style="text;html=1;strokeColor=none;fillColor=none;align=center;verticalAlign=middle;whiteSpace=wrap;rounded=0;shadow=0;fontSize=28;fontStyle=1" vertex="1" parent="9Hq40vW_agEkmxD8z5mN-1">
          <mxGeometry x="1272.5" y="260" width="145" height="20" as="geometry" />
        </mxCell>
        <mxCell id="9Hq40vW_agEkmxD8z5mN-21" value="Data" style="rounded=0;whiteSpace=wrap;html=1;shadow=1;fontSize=21;" vertex="1" parent="9Hq40vW_agEkmxD8z5mN-1">
          <mxGeometry x="1300" y="310" width="90" height="55" as="geometry" />
        </mxCell>
        <mxCell id="9Hq40vW_agEkmxD8z5mN-22" value="Data" style="rounded=0;whiteSpace=wrap;html=1;shadow=1;fontSize=21;" vertex="1" parent="9Hq40vW_agEkmxD8z5mN-1">
          <mxGeometry x="1300" y="380" width="90" height="55" as="geometry" />
        </mxCell>
        <mxCell id="9Hq40vW_agEkmxD8z5mN-23" value="Data" style="rounded=0;whiteSpace=wrap;html=1;shadow=1;fontSize=21;" vertex="1" parent="9Hq40vW_agEkmxD8z5mN-1">
          <mxGeometry x="1300" y="450" width="90" height="55" as="geometry" />
        </mxCell>
        <mxCell id="9Hq40vW_agEkmxD8z5mN-24" value="Data" style="rounded=0;whiteSpace=wrap;html=1;shadow=1;fontSize=21;" vertex="1" parent="9Hq40vW_agEkmxD8z5mN-1">
          <mxGeometry x="1300" y="520" width="90" height="55" as="geometry" />
        </mxCell>
        <mxCell id="SshVPyMuQrD3J-Mx2ha--0" value="" style="rounded=0;whiteSpace=wrap;html=1;fontSize=25;fillColor=none;strokeColor=#b85450;strokeWidth=5;" vertex="1" parent="9Hq40vW_agEkmxD8z5mN-1">
          <mxGeometry x="735" y="300" width="695" height="70" as="geometry" />
        </mxCell>
      </root>
    </mxGraphModel>
  </diagram>
  <diagram id="Ktb8YenTB6ypwEbNL8dW" name="03 - split">
    <mxGraphModel dx="1252" dy="616" grid="1" gridSize="10" guides="1" tooltips="1" connect="1" arrows="1" fold="1" page="1" pageScale="1" pageWidth="1920" pageHeight="1200" math="0" shadow="0">
      <root>
        <mxCell id="Ix41JTCmLRRuhskhJ20r-0" />
        <mxCell id="Ix41JTCmLRRuhskhJ20r-1" parent="Ix41JTCmLRRuhskhJ20r-0" />
        <mxCell id="Ix41JTCmLRRuhskhJ20r-2" value="" style="rounded=0;whiteSpace=wrap;html=1;shadow=1;fontSize=28;fillColor=#f5f5f5;strokeColor=#666666;fontColor=#333333;" vertex="1" parent="Ix41JTCmLRRuhskhJ20r-1">
          <mxGeometry x="310" y="344" width="300" height="300" as="geometry" />
        </mxCell>
        <mxCell id="Ix41JTCmLRRuhskhJ20r-3" value="Monolithic Server" style="text;html=1;strokeColor=none;fillColor=none;align=center;verticalAlign=middle;whiteSpace=wrap;rounded=0;shadow=0;fontSize=28;fontStyle=1" vertex="1" parent="Ix41JTCmLRRuhskhJ20r-1">
          <mxGeometry x="317.5" y="314" width="285" height="20" as="geometry" />
        </mxCell>
        <mxCell id="Ix41JTCmLRRuhskhJ20r-4" style="edgeStyle=orthogonalEdgeStyle;rounded=0;orthogonalLoop=1;jettySize=auto;html=1;exitX=1;exitY=0.5;exitDx=0;exitDy=0;entryX=0;entryY=0.5;entryDx=0;entryDy=0;fontSize=19;" edge="1" parent="Ix41JTCmLRRuhskhJ20r-1" source="Ix41JTCmLRRuhskhJ20r-5" target="Ix41JTCmLRRuhskhJ20r-12">
          <mxGeometry relative="1" as="geometry" />
        </mxCell>
        <mxCell id="Ix41JTCmLRRuhskhJ20r-5" value="Authentication feature" style="rounded=0;whiteSpace=wrap;html=1;shadow=1;fontSize=21;fillColor=#dae8fc;strokeColor=#6c8ebf;" vertex="1" parent="Ix41JTCmLRRuhskhJ20r-1">
          <mxGeometry x="323.75" y="364" width="272.5" height="55" as="geometry" />
        </mxCell>
        <mxCell id="Ix41JTCmLRRuhskhJ20r-6" style="edgeStyle=orthogonalEdgeStyle;rounded=0;orthogonalLoop=1;jettySize=auto;html=1;exitX=1;exitY=0.5;exitDx=0;exitDy=0;entryX=0;entryY=0.5;entryDx=0;entryDy=0;fontSize=19;" edge="1" parent="Ix41JTCmLRRuhskhJ20r-1" source="Ix41JTCmLRRuhskhJ20r-7" target="Ix41JTCmLRRuhskhJ20r-14">
          <mxGeometry relative="1" as="geometry" />
        </mxCell>
        <mxCell id="Ix41JTCmLRRuhskhJ20r-7" value="Feature A" style="rounded=0;whiteSpace=wrap;html=1;shadow=1;fontSize=21;fillColor=#ffe6cc;strokeColor=#d79b00;" vertex="1" parent="Ix41JTCmLRRuhskhJ20r-1">
          <mxGeometry x="323.75" y="434" width="272.5" height="55" as="geometry" />
        </mxCell>
        <mxCell id="Ix41JTCmLRRuhskhJ20r-8" style="edgeStyle=orthogonalEdgeStyle;rounded=0;orthogonalLoop=1;jettySize=auto;html=1;exitX=1;exitY=0.5;exitDx=0;exitDy=0;entryX=0;entryY=0.5;entryDx=0;entryDy=0;fontSize=19;" edge="1" parent="Ix41JTCmLRRuhskhJ20r-1" source="Ix41JTCmLRRuhskhJ20r-9" target="Ix41JTCmLRRuhskhJ20r-15">
          <mxGeometry relative="1" as="geometry" />
        </mxCell>
        <mxCell id="Ix41JTCmLRRuhskhJ20r-9" value="Feature B" style="rounded=0;whiteSpace=wrap;html=1;shadow=1;fontSize=21;fillColor=#d5e8d4;strokeColor=#82b366;" vertex="1" parent="Ix41JTCmLRRuhskhJ20r-1">
          <mxGeometry x="323.75" y="504" width="272.5" height="55" as="geometry" />
        </mxCell>
        <mxCell id="Ix41JTCmLRRuhskhJ20r-10" style="edgeStyle=orthogonalEdgeStyle;rounded=0;orthogonalLoop=1;jettySize=auto;html=1;exitX=1;exitY=0.5;exitDx=0;exitDy=0;fontSize=19;" edge="1" parent="Ix41JTCmLRRuhskhJ20r-1" source="Ix41JTCmLRRuhskhJ20r-11" target="Ix41JTCmLRRuhskhJ20r-16">
          <mxGeometry relative="1" as="geometry" />
        </mxCell>
        <mxCell id="Ix41JTCmLRRuhskhJ20r-11" value="Feature C" style="rounded=0;whiteSpace=wrap;html=1;shadow=1;fontSize=21;fillColor=#e1d5e7;strokeColor=#9673a6;" vertex="1" parent="Ix41JTCmLRRuhskhJ20r-1">
          <mxGeometry x="323.75" y="574" width="272.5" height="55" as="geometry" />
        </mxCell>
        <mxCell id="Ix41JTCmLRRuhskhJ20r-12" value="" style="rounded=0;whiteSpace=wrap;html=1;shadow=1;fontSize=28;fillColor=#f5f5f5;strokeColor=#666666;fontColor=#333333;" vertex="1" parent="Ix41JTCmLRRuhskhJ20r-1">
          <mxGeometry x="748.75" y="280" width="300" height="90" as="geometry" />
        </mxCell>
        <mxCell id="Ix41JTCmLRRuhskhJ20r-13" value="Authentication feature" style="rounded=0;whiteSpace=wrap;html=1;shadow=1;fontSize=21;fillColor=#dae8fc;strokeColor=#6c8ebf;" vertex="1" parent="Ix41JTCmLRRuhskhJ20r-1">
          <mxGeometry x="762.5" y="297.5" width="272.5" height="55" as="geometry" />
        </mxCell>
        <mxCell id="Ix41JTCmLRRuhskhJ20r-14" value="" style="rounded=0;whiteSpace=wrap;html=1;shadow=1;fontSize=28;fillColor=#f5f5f5;strokeColor=#666666;fontColor=#333333;" vertex="1" parent="Ix41JTCmLRRuhskhJ20r-1">
          <mxGeometry x="748.75" y="390" width="300" height="90" as="geometry" />
        </mxCell>
        <mxCell id="Ix41JTCmLRRuhskhJ20r-15" value="" style="rounded=0;whiteSpace=wrap;html=1;shadow=1;fontSize=28;fillColor=#f5f5f5;strokeColor=#666666;fontColor=#333333;" vertex="1" parent="Ix41JTCmLRRuhskhJ20r-1">
          <mxGeometry x="748.75" y="505" width="300" height="90" as="geometry" />
        </mxCell>
        <mxCell id="Ix41JTCmLRRuhskhJ20r-16" value="" style="rounded=0;whiteSpace=wrap;html=1;shadow=1;fontSize=28;fillColor=#f5f5f5;strokeColor=#666666;fontColor=#333333;" vertex="1" parent="Ix41JTCmLRRuhskhJ20r-1">
          <mxGeometry x="748.75" y="620" width="300" height="90" as="geometry" />
        </mxCell>
        <mxCell id="Ix41JTCmLRRuhskhJ20r-17" value="Feature A" style="rounded=0;whiteSpace=wrap;html=1;shadow=1;fontSize=21;fillColor=#ffe6cc;strokeColor=#d79b00;" vertex="1" parent="Ix41JTCmLRRuhskhJ20r-1">
          <mxGeometry x="762.5" y="407.5" width="272.5" height="55" as="geometry" />
        </mxCell>
        <mxCell id="Ix41JTCmLRRuhskhJ20r-18" value="Feature B" style="rounded=0;whiteSpace=wrap;html=1;shadow=1;fontSize=21;fillColor=#d5e8d4;strokeColor=#82b366;" vertex="1" parent="Ix41JTCmLRRuhskhJ20r-1">
          <mxGeometry x="766.25" y="522.5" width="272.5" height="55" as="geometry" />
        </mxCell>
        <mxCell id="Ix41JTCmLRRuhskhJ20r-19" value="Feature C" style="rounded=0;whiteSpace=wrap;html=1;shadow=1;fontSize=21;fillColor=#e1d5e7;strokeColor=#9673a6;" vertex="1" parent="Ix41JTCmLRRuhskhJ20r-1">
          <mxGeometry x="766.25" y="637.5" width="272.5" height="55" as="geometry" />
        </mxCell>
        <mxCell id="Ix41JTCmLRRuhskhJ20r-20" value="" style="shape=curlyBracket;whiteSpace=wrap;html=1;rounded=1;strokeWidth=1;fontSize=15;align=center;rotation=-180;" vertex="1" parent="Ix41JTCmLRRuhskhJ20r-1">
          <mxGeometry x="1060" y="280" width="20" height="90" as="geometry" />
        </mxCell>
        <mxCell id="Ix41JTCmLRRuhskhJ20r-21" value="Auth Service" style="text;html=1;strokeColor=none;fillColor=none;align=left;verticalAlign=middle;whiteSpace=wrap;rounded=0;fontSize=19;fontStyle=1" vertex="1" parent="Ix41JTCmLRRuhskhJ20r-1">
          <mxGeometry x="1080" y="315" width="70" height="20" as="geometry" />
        </mxCell>
        <mxCell id="Ix41JTCmLRRuhskhJ20r-22" value="" style="shape=curlyBracket;whiteSpace=wrap;html=1;rounded=1;strokeWidth=1;fontSize=15;align=center;rotation=-180;" vertex="1" parent="Ix41JTCmLRRuhskhJ20r-1">
          <mxGeometry x="1060" y="390" width="20" height="90" as="geometry" />
        </mxCell>
        <mxCell id="Ix41JTCmLRRuhskhJ20r-23" value="Service A" style="text;html=1;strokeColor=none;fillColor=none;align=left;verticalAlign=middle;whiteSpace=wrap;rounded=0;fontSize=19;fontStyle=1" vertex="1" parent="Ix41JTCmLRRuhskhJ20r-1">
          <mxGeometry x="1080" y="425" width="90" height="20" as="geometry" />
        </mxCell>
        <mxCell id="Ix41JTCmLRRuhskhJ20r-24" value="" style="shape=curlyBracket;whiteSpace=wrap;html=1;rounded=1;strokeWidth=1;fontSize=15;align=center;rotation=-180;" vertex="1" parent="Ix41JTCmLRRuhskhJ20r-1">
          <mxGeometry x="1060" y="505" width="20" height="90" as="geometry" />
        </mxCell>
        <mxCell id="Ix41JTCmLRRuhskhJ20r-25" value="Service B" style="text;html=1;strokeColor=none;fillColor=none;align=left;verticalAlign=middle;whiteSpace=wrap;rounded=0;fontSize=19;fontStyle=1" vertex="1" parent="Ix41JTCmLRRuhskhJ20r-1">
          <mxGeometry x="1080" y="540" width="90" height="20" as="geometry" />
        </mxCell>
        <mxCell id="Ix41JTCmLRRuhskhJ20r-26" value="" style="shape=curlyBracket;whiteSpace=wrap;html=1;rounded=1;strokeWidth=1;fontSize=15;align=center;rotation=-180;" vertex="1" parent="Ix41JTCmLRRuhskhJ20r-1">
          <mxGeometry x="1060" y="620" width="20" height="90" as="geometry" />
        </mxCell>
        <mxCell id="Ix41JTCmLRRuhskhJ20r-27" value="Service C" style="text;html=1;strokeColor=none;fillColor=none;align=left;verticalAlign=middle;whiteSpace=wrap;rounded=0;fontSize=19;fontStyle=1" vertex="1" parent="Ix41JTCmLRRuhskhJ20r-1">
          <mxGeometry x="1080" y="655" width="100" height="20" as="geometry" />
        </mxCell>
        <mxCell id="ZyTbzyo1_VaRfgFfVADh-0" value="What you might think microservices are about..." style="rounded=0;whiteSpace=wrap;html=1;fontSize=28;fillColor=#f8cecc;strokeColor=#b85450;fontStyle=1" vertex="1" parent="Ix41JTCmLRRuhskhJ20r-1">
          <mxGeometry x="310" y="180" width="738.75" height="60" as="geometry" />
        </mxCell>
      </root>
    </mxGraphModel>
  </diagram>
  <diagram id="UwBNRPRDxSd4uY1OxU8w" name="03 - deeper">
    <mxGraphModel dx="969" dy="477" grid="1" gridSize="10" guides="1" tooltips="1" connect="1" arrows="1" fold="1" page="1" pageScale="1" pageWidth="1920" pageHeight="1200" math="0" shadow="0">
      <root>
        <mxCell id="sI-Y3hal7T5RmRoXUf-y-0" />
        <mxCell id="sI-Y3hal7T5RmRoXUf-y-1" parent="sI-Y3hal7T5RmRoXUf-y-0" />
        <mxCell id="0AmcKFDnkolTXMtFXT8q-0" value="" style="rounded=0;whiteSpace=wrap;html=1;shadow=1;fontSize=28;fillColor=#f5f5f5;strokeColor=#666666;fontColor=#333333;" vertex="1" parent="sI-Y3hal7T5RmRoXUf-y-1">
          <mxGeometry x="960" y="280" width="300" height="300" as="geometry" />
        </mxCell>
        <mxCell id="0AmcKFDnkolTXMtFXT8q-1" value="Monolithic Server" style="text;html=1;strokeColor=none;fillColor=none;align=center;verticalAlign=middle;whiteSpace=wrap;rounded=0;shadow=0;fontSize=28;fontStyle=1" vertex="1" parent="sI-Y3hal7T5RmRoXUf-y-1">
          <mxGeometry x="967.5" y="250" width="285" height="20" as="geometry" />
        </mxCell>
        <mxCell id="0AmcKFDnkolTXMtFXT8q-2" value="Authentication feature" style="rounded=0;whiteSpace=wrap;html=1;shadow=1;fontSize=21;fillColor=#dae8fc;strokeColor=#6c8ebf;" vertex="1" parent="sI-Y3hal7T5RmRoXUf-y-1">
          <mxGeometry x="973.75" y="300" width="272.5" height="55" as="geometry" />
        </mxCell>
        <mxCell id="0AmcKFDnkolTXMtFXT8q-3" value="Feature A" style="rounded=0;whiteSpace=wrap;html=1;shadow=1;fontSize=21;fillColor=#ffe6cc;strokeColor=#d79b00;" vertex="1" parent="sI-Y3hal7T5RmRoXUf-y-1">
          <mxGeometry x="973.75" y="370" width="272.5" height="55" as="geometry" />
        </mxCell>
        <mxCell id="0AmcKFDnkolTXMtFXT8q-4" value="Feature B" style="rounded=0;whiteSpace=wrap;html=1;shadow=1;fontSize=21;fillColor=#d5e8d4;strokeColor=#82b366;" vertex="1" parent="sI-Y3hal7T5RmRoXUf-y-1">
          <mxGeometry x="973.75" y="440" width="272.5" height="55" as="geometry" />
        </mxCell>
        <mxCell id="0AmcKFDnkolTXMtFXT8q-7" value="Feature C" style="rounded=0;whiteSpace=wrap;html=1;shadow=1;fontSize=21;fillColor=#e1d5e7;strokeColor=#9673a6;" vertex="1" parent="sI-Y3hal7T5RmRoXUf-y-1">
          <mxGeometry x="973.75" y="510" width="272.5" height="55" as="geometry" />
        </mxCell>
      </root>
    </mxGraphModel>
  </diagram>
  <diagram name="04 - comm" id="2zP6uVQ-qo-ypvJZn7uN">
    <mxGraphModel dx="1036" dy="510" grid="1" gridSize="10" guides="1" tooltips="1" connect="1" arrows="1" fold="1" page="1" pageScale="1" pageWidth="1920" pageHeight="1200" math="0" shadow="0">
      <root>
        <mxCell id="1O9kDTaXlOhQL-3o6Ueb-0" />
        <mxCell id="1O9kDTaXlOhQL-3o6Ueb-1" parent="1O9kDTaXlOhQL-3o6Ueb-0" />
        <mxCell id="1O9kDTaXlOhQL-3o6Ueb-2" value="" style="rounded=0;whiteSpace=wrap;html=1;shadow=1;fontSize=28;fillColor=#f5f5f5;strokeColor=#666666;fontColor=#333333;" vertex="1" parent="1O9kDTaXlOhQL-3o6Ueb-1">
          <mxGeometry x="910" y="280" width="420" height="370" as="geometry" />
        </mxCell>
        <mxCell id="1O9kDTaXlOhQL-3o6Ueb-3" value="Monolithic Server" style="text;html=1;strokeColor=none;fillColor=none;align=center;verticalAlign=middle;whiteSpace=wrap;rounded=0;shadow=0;fontSize=28;fontStyle=1" vertex="1" parent="1O9kDTaXlOhQL-3o6Ueb-1">
          <mxGeometry x="967.5" y="250" width="285" height="20" as="geometry" />
        </mxCell>
        <mxCell id="1O9kDTaXlOhQL-3o6Ueb-4" value="Authentication feature" style="rounded=0;whiteSpace=wrap;html=1;shadow=1;fontSize=21;fillColor=#dae8fc;strokeColor=#6c8ebf;" vertex="1" parent="1O9kDTaXlOhQL-3o6Ueb-1">
          <mxGeometry x="973.75" y="300" width="272.5" height="55" as="geometry" />
        </mxCell>
        <mxCell id="1O9kDTaXlOhQL-3o6Ueb-18" style="edgeStyle=orthogonalEdgeStyle;rounded=0;orthogonalLoop=1;jettySize=auto;html=1;exitX=1;exitY=0.5;exitDx=0;exitDy=0;entryX=1;entryY=0.75;entryDx=0;entryDy=0;fontSize=21;" edge="1" parent="1O9kDTaXlOhQL-3o6Ueb-1" source="1O9kDTaXlOhQL-3o6Ueb-5" target="1O9kDTaXlOhQL-3o6Ueb-4">
          <mxGeometry relative="1" as="geometry" />
        </mxCell>
        <mxCell id="1O9kDTaXlOhQL-3o6Ueb-5" value="Feature A" style="rounded=0;whiteSpace=wrap;html=1;shadow=1;fontSize=21;fillColor=#ffe6cc;strokeColor=#d79b00;" vertex="1" parent="1O9kDTaXlOhQL-3o6Ueb-1">
          <mxGeometry x="973.75" y="391" width="272.5" height="55" as="geometry" />
        </mxCell>
        <mxCell id="1O9kDTaXlOhQL-3o6Ueb-19" style="edgeStyle=orthogonalEdgeStyle;rounded=0;orthogonalLoop=1;jettySize=auto;html=1;exitX=1;exitY=0.5;exitDx=0;exitDy=0;entryX=1;entryY=0.25;entryDx=0;entryDy=0;fontSize=21;" edge="1" parent="1O9kDTaXlOhQL-3o6Ueb-1" source="1O9kDTaXlOhQL-3o6Ueb-6" target="1O9kDTaXlOhQL-3o6Ueb-7">
          <mxGeometry relative="1" as="geometry" />
        </mxCell>
        <mxCell id="1O9kDTaXlOhQL-3o6Ueb-6" value="Feature B" style="rounded=0;whiteSpace=wrap;html=1;shadow=1;fontSize=21;fillColor=#d5e8d4;strokeColor=#82b366;" vertex="1" parent="1O9kDTaXlOhQL-3o6Ueb-1">
          <mxGeometry x="973.75" y="482" width="272.5" height="55" as="geometry" />
        </mxCell>
        <mxCell id="1O9kDTaXlOhQL-3o6Ueb-7" value="Feature C" style="rounded=0;whiteSpace=wrap;html=1;shadow=1;fontSize=21;fillColor=#e1d5e7;strokeColor=#9673a6;" vertex="1" parent="1O9kDTaXlOhQL-3o6Ueb-1">
          <mxGeometry x="973.75" y="573" width="272.5" height="55" as="geometry" />
        </mxCell>
        <mxCell id="1O9kDTaXlOhQL-3o6Ueb-8" style="edgeStyle=orthogonalEdgeStyle;rounded=0;orthogonalLoop=1;jettySize=auto;html=1;exitX=1;exitY=0.5;exitDx=0;exitDy=0;entryX=0;entryY=0.5;entryDx=0;entryDy=0;fontSize=21;" edge="1" parent="1O9kDTaXlOhQL-3o6Ueb-1" source="1O9kDTaXlOhQL-3o6Ueb-12" target="1O9kDTaXlOhQL-3o6Ueb-4">
          <mxGeometry relative="1" as="geometry" />
        </mxCell>
        <mxCell id="1O9kDTaXlOhQL-3o6Ueb-9" style="edgeStyle=orthogonalEdgeStyle;rounded=0;orthogonalLoop=1;jettySize=auto;html=1;exitX=1;exitY=0.5;exitDx=0;exitDy=0;fontSize=21;" edge="1" parent="1O9kDTaXlOhQL-3o6Ueb-1" source="1O9kDTaXlOhQL-3o6Ueb-12" target="1O9kDTaXlOhQL-3o6Ueb-5">
          <mxGeometry relative="1" as="geometry" />
        </mxCell>
        <mxCell id="1O9kDTaXlOhQL-3o6Ueb-15" style="edgeStyle=orthogonalEdgeStyle;rounded=0;orthogonalLoop=1;jettySize=auto;html=1;exitX=1;exitY=0.5;exitDx=0;exitDy=0;entryX=0;entryY=0.5;entryDx=0;entryDy=0;fontSize=21;" edge="1" parent="1O9kDTaXlOhQL-3o6Ueb-1" source="1O9kDTaXlOhQL-3o6Ueb-12" target="1O9kDTaXlOhQL-3o6Ueb-6">
          <mxGeometry relative="1" as="geometry" />
        </mxCell>
        <mxCell id="1O9kDTaXlOhQL-3o6Ueb-16" style="edgeStyle=orthogonalEdgeStyle;rounded=0;orthogonalLoop=1;jettySize=auto;html=1;exitX=1;exitY=0.5;exitDx=0;exitDy=0;entryX=0;entryY=0.5;entryDx=0;entryDy=0;fontSize=21;" edge="1" parent="1O9kDTaXlOhQL-3o6Ueb-1" source="1O9kDTaXlOhQL-3o6Ueb-12" target="1O9kDTaXlOhQL-3o6Ueb-7">
          <mxGeometry relative="1" as="geometry" />
        </mxCell>
        <mxCell id="1O9kDTaXlOhQL-3o6Ueb-12" value="Router" style="rounded=0;whiteSpace=wrap;html=1;fontSize=21;fillColor=#f5f5f5;strokeColor=#666666;fontColor=#333333;" vertex="1" parent="1O9kDTaXlOhQL-3o6Ueb-1">
          <mxGeometry x="790" y="435" width="120" height="60" as="geometry" />
        </mxCell>
        <mxCell id="1O9kDTaXlOhQL-3o6Ueb-13" style="edgeStyle=orthogonalEdgeStyle;rounded=0;orthogonalLoop=1;jettySize=auto;html=1;exitX=1;exitY=0.5;exitDx=0;exitDy=0;fontSize=21;" edge="1" parent="1O9kDTaXlOhQL-3o6Ueb-1" source="1O9kDTaXlOhQL-3o6Ueb-14" target="1O9kDTaXlOhQL-3o6Ueb-12">
          <mxGeometry relative="1" as="geometry" />
        </mxCell>
        <mxCell id="1O9kDTaXlOhQL-3o6Ueb-14" value="Request" style="text;html=1;strokeColor=none;fillColor=none;align=center;verticalAlign=middle;whiteSpace=wrap;rounded=0;fontSize=21;" vertex="1" parent="1O9kDTaXlOhQL-3o6Ueb-1">
          <mxGeometry x="660" y="455" width="90" height="20" as="geometry" />
        </mxCell>
      </root>
    </mxGraphModel>
  </diagram>
</mxfile>
